PathFileType	4	(X/Y/Z)	/Users/itak/Documents/Research/Walk-IL/dataset/trc/00001_00004.trc
DataRate	CameraRate	NumFrames	NumMarkers	Units	OrigDataRate	OrigDataStartFrame	OrigNumFrames
100.000000	100.000000	4	53	mm	100.000000	189	378
Frame#	Time	RPSI			LPSI			L3			STRN			T10			C7			CLAV			RBAK			LBAK			LSHO			LUPA			LAEL			LAOL			LWTS			LWPS			LFRA			LIFD			LHPS			LHTS			RSHO			RUPA			RAEL			RAOL			RWTS			RWPS			RFRA			RIFD			RHTS			RHPS			RBHD			LFHD			RFHD			LBHD			LHIP			RHIP			RASI			LASI			LKNE			LTHI			LANK			LTIP			LTOE			LMT1			LMT5			LHEE			RKNE			RTHI			RANK			RTIP			RTOE			RMT1			RMT5			RHEE			
		X1	Y1	Z1	X2	Y2	Z2	X3	Y3	Z3	X4	Y4	Z4	X5	Y5	Z5	X6	Y6	Z6	X7	Y7	Z7	X8	Y8	Z8	X9	Y9	Z9	X10	Y10	Z10	X11	Y11	Z11	X12	Y12	Z12	X13	Y13	Z13	X14	Y14	Z14	X15	Y15	Z15	X16	Y16	Z16	X17	Y17	Z17	X18	Y18	Z18	X19	Y19	Z19	X20	Y20	Z20	X21	Y21	Z21	X22	Y22	Z22	X23	Y23	Z23	X24	Y24	Z24	X25	Y25	Z25	X26	Y26	Z26	X27	Y27	Z27	X28	Y28	Z28	X29	Y29	Z29	X30	Y30	Z30	X31	Y31	Z31	X32	Y32	Z32	X33	Y33	Z33	X34	Y34	Z34	X35	Y35	Z35	X36	Y36	Z36	X37	Y37	Z37	X38	Y38	Z38	X39	Y39	Z39	X40	Y40	Z40	X41	Y41	Z41	X42	Y42	Z42	X43	Y43	Z43	X44	Y44	Z44	X45	Y45	Z45	X46	Y46	Z46	X47	Y47	Z47	X48	Y48	Z48	X49	Y49	Z49	X50	Y50	Z50	X51	Y51	Z51	X52	Y52	Z52	X53	Y53	Z53	

190	1.89	-1206.512451171875	1069.630493164062	-131.3857879638672	-1214.109741210938	1065.7109375	-294.2221069335938	-1211.927978515625	1134.828979492188	-219.3846435546875	-975.7233276367188	1312.680541992188	-211.1239013671875	-1228.497802734375	1279.8427734375	-224.0597229003906	-1163.33154296875	1543.705200195312	-228.8714904785156	-1011.151977539062	1440.798461914062	-216.4763031005859	-1227.64599609375	1409.512573242188	-153.5303192138672	-1178.150268554688	1505.155151367188	-328.6441345214844	-1070.751831054688	1504.905029296875	-395.6971435546875	-1101.3662109375	1382.639526367188	-476.534912109375	-1108.329467773438	1164.983642578125	-502.4795837402344	-1171.31005859375	1153.359130859375	-417.6812133789062	-1023.648498535156	912.6726684570312	-442.9927062988281	-1098.334106445312	897.117919921875	-487.8645324707031	-1096.388916015625	1048.81787109375	-507.8228149414062	-995.681396484375	731.073974609375	-419.076171875	-1063.954833984375	808.059814453125	-484.3936157226562	-998.1808471679688	821.208740234375	-454.8390808105469	-1096.7744140625	1522.37841796875	-51.22898101806641	-1119.623657226562	1451.019653320312	19.74642753601074	-1176.214111328125	1186.771118164062	41.54544830322266	-1174.556518554688	1157.630859375	-54.84694671630859	-1062.2568359375	919.6834106445312	22.82125091552734	-1133.408081054688	910.42578125	82.62953186035156	-1169.096923828125	1110.795166015625	58.62944793701172	-1062.474731445312	736.721435546875	3.285275936126709	-1037.52783203125	808.2440795898438	41.74782180786133	-1098.443725585938	807.8466796875	86.20608520507812	-1094.253295898438	1724.073608398438	-284.890380859375	-910.4207763671875	1714.799682617188	-167.1998596191406	-912.833984375	1713.858154296875	-265.6496887207031	-1083.736572265625	1720.279174804688	-140.6402740478516	-1123.590698242188	966.0916748046875	-407.3805236816406	-1095.144165039062	955.3412475585938	-31.06697082519531	-993.2734375	983.9728393554688	-107.9307556152344	-1007.717529296875	1006.07373046875	-343.1581726074219	-1017.708984375	521.4796142578125	-379.6022338867188	-1061.208129882812	658.4489135742188	-406.4571533203125	-1222.80615234375	57.6185417175293	-384.1699829101562	-1147.086059570312	296.8966369628906	-399.4897155761719	-1005.279235839844	42.33668518066406	-325.7587890625	-1062.984741210938	53.48535919189453	-307.104248046875	-1099.604614257812	45.32672500610352	-406.4505004882812	-1290.1767578125	72.28905487060547	-330.0817260742188	-1105.8720703125	519.8400268554688	-96.51464080810547	-1075.26806640625	786.6151123046875	-40.93761825561523	-1240.184326171875	44.49723815917969	-139.9792633056641	-1136.716918945312	397.5624694824219	-100.5102844238281	-1009.358032226562	45.1956901550293	-183.8176879882812	-1071.718139648438	49.90548706054688	-213.8319549560547	-1091.232666015625	46.08296585083008	-118.4837036132812	-1296.69384765625	44.21704864501953	-184.7074737548828	
191	1.9	-1204.919189453125	1069.322021484375	-130.5633239746094	-1212.64453125	1065.318481445312	-293.3886413574219	-1210.315551757812	1134.639282226562	-218.4915313720703	-973.8751220703125	1312.31787109375	-210.4059295654297	-1226.664672851562	1279.78466796875	-223.1482391357422	-1161.19580078125	1543.57568359375	-227.927734375	-1009.180786132812	1440.479370117188	-215.6997680664062	-1225.666748046875	1409.455444335938	-152.5570220947266	-1176.222778320312	1505.088012695312	-327.6757202148438	-1068.874755859375	1504.651733398438	-394.8714904785156	-1099.802001953125	1382.418579101562	-475.6707153320312	-1107.253784179688	1164.834228515625	-501.7761840820312	-1169.786499023438	1153.151611328125	-416.6699523925781	-1022.201354980469	912.5179443359375	-443.0093994140625	-1097.172485351562	896.96826171875	-487.4595336914062	-1095.314086914062	1048.67578125	-507.2721252441406	-994.0606689453125	730.8865356445312	-419.4411926269531	-1062.758666992188	807.9177856445312	-484.26611328125	-997.0219116210938	820.89990234375	-455.0421142578125	-1094.586059570312	1522.163940429688	-50.32336807250977	-1117.40625	1450.77685546875	20.65000152587891	-1174.375732421875	1186.648193359375	42.73497772216797	-1172.865234375	1157.40576171875	-53.64476776123047	-1060.827270507812	919.3900756835938	24.15599250793457	-1131.884399414062	910.302734375	84.05245208740234	-1167.353637695312	1110.684814453125	59.87528610229492	-1061.277465820312	736.362548828125	4.892729759216309	-1036.213745117188	807.9896850585938	43.23427963256836	-1097.082397460938	807.6604614257812	87.744384765625	-1091.665405273438	1723.881958007812	-283.9469299316406	-907.9419555664062	1714.151123046875	-166.1274719238281	-910.284423828125	1713.292602539062	-264.5775146484375	-1081.250854492188	1719.96435546875	-139.6891021728516	-1121.660034179688	966.0269775390625	-406.7098999023438	-1093.656372070312	954.9835815429688	-30.36797714233398	-991.5969848632812	983.6676025390625	-107.0724334716797	-1006.143981933594	1006.115783691406	-342.2581176757812	-1009.1796875	522.2447509765625	-379.7255859375	-1054.69140625	659.0308227539062	-406.2704772949219	-1219.565795898438	59.94128799438477	-383.4074401855469	-1140.44384765625	298.1118469238281	-399.2435913085938	-1002.332336425781	42.97179794311523	-324.7294311523438	-1059.915893554688	54.48763275146484	-306.0770263671875	-1096.485595703125	46.51591110229492	-405.4473876953125	-1286.846801757812	75.26637268066406	-329.413818359375	-1104.885986328125	519.5325317382812	-96.04492950439453	-1073.81689453125	786.26513671875	-40.34747695922852	-1240.222045898438	44.50112152099609	-139.9873809814453	-1136.0087890625	397.3098449707031	-100.1472930908203	-1009.374389648438	45.18880462646484	-183.8252716064453	-1071.724731445312	49.89930725097656	-213.8357849121094	-1091.234741210938	46.07863616943359	-118.4808044433594	-1296.695190429688	44.21506881713867	-184.6821594238281	
192	1.91	-1203.242431640625	1069.021484375	-129.8115386962891	-1211.04736328125	1064.968505859375	-292.6331481933594	-1208.597900390625	1134.454833984375	-217.6608123779297	-971.9712524414062	1311.9853515625	-209.7283477783203	-1224.77197265625	1279.732055664062	-222.2726440429688	-1159.016723632812	1543.459350585938	-227.0556335449219	-1007.15478515625	1440.192749023438	-214.9837188720703	-1223.630859375	1409.408813476562	-151.6301879882812	-1174.257934570312	1505.01513671875	-326.7565307617188	-1066.965087890625	1504.408813476562	-394.1076354980469	-1098.224975585938	1382.206298828125	-474.8575134277344	-1106.178833007812	1164.697631835938	-501.1203308105469	-1168.245483398438	1152.956298828125	-415.6930847167969	-1020.728942871094	912.384521484375	-443.0892639160156	-1096.0107421875	896.8299560546875	-487.0980834960938	-1094.234130859375	1048.545043945312	-506.7684020996094	-992.3524169921875	730.7431030273438	-419.9185791015625	-1061.554931640625	807.791748046875	-484.1988525390625	-995.8646240234375	820.5955810546875	-455.3511962890625	-1092.350219726562	1521.991943359375	-49.47861480712891	-1115.115966796875	1450.575317382812	21.49983787536621	-1172.415161132812	1186.559326171875	43.86796188354492	-1171.044799804688	1157.2119140625	-52.49413681030273	-1059.275390625	919.1242065429688	25.43704414367676	-1130.23828125	910.2130737304688	85.43014526367188	-1165.481079101562	1110.609375	61.06753158569336	-1060.00390625	736.04150390625	6.4437575340271	-1034.802856445312	807.7613525390625	44.66954040527344	-1095.614013671875	807.5147094726562	89.24512481689453	-1089.006103515625	1723.733032226562	-283.0769653320312	-905.3781127929688	1713.4931640625	-165.1392974853516	-907.6611328125	1712.722534179688	-263.5839233398438	-1078.691284179688	1719.681274414062	-138.8072052001953	-1119.560302734375	966.0242919921875	-406.092041015625	-1092.120849609375	954.6162719726562	-29.7294921875	-989.8477172851562	983.3761596679688	-106.2295913696289	-1004.416748046875	1006.211608886719	-341.365478515625	-1000.806701660156	523.1453247070312	-379.8219604492188	-1048.312866210938	659.6985473632812	-406.1277770996094	-1215.427978515625	62.12213134765625	-382.6246643066406	-1133.4892578125	299.3214721679688	-398.9494934082031	-998.5	43.81457901000977	-323.4825744628906	-1055.9892578125	55.61484909057617	-304.89599609375	-1092.424926757812	47.75736236572266	-404.3148803710938	-1282.672241210938	77.97856903076172	-328.7568969726562	-1103.880859375	519.2314453125	-95.62117767333984	-1072.324951171875	785.9082641601562	-39.80899429321289	-1240.253540039062	44.50914001464844	-139.9964447021484	-1135.285278320312	397.0680847167969	-99.82772064208984	-1009.389709472656	45.18339920043945	-183.8295440673828	-1071.72802734375	49.89142227172852	-213.8381805419922	-1091.234252929688	46.07537460327148	-118.4778747558594	-1296.696411132812	44.22579193115234	-184.6712341308594	
193	1.92	-1201.476318359375	1068.730834960938	-129.1358642578125	-1209.31005859375	1064.666748046875	-291.9604797363281	-1206.767578125	1134.280029296875	-216.8965759277344	-970.00341796875	1311.6875	-209.0834045410156	-1222.816284179688	1279.686157226562	-221.4288940429688	-1156.7919921875	1543.357177734375	-226.2524719238281	-1005.067138671875	1439.940673828125	-214.3229217529297	-1221.531005859375	1409.373291015625	-150.7467346191406	-1172.2470703125	1504.935180664062	-325.88671875	-1065.0126953125	1504.17724609375	-393.4005737304688	-1096.623413085938	1382.006591796875	-474.0923767089844	-1105.089721679688	1164.578735351562	-500.5089416503906	-1166.6826171875	1152.778564453125	-414.7533264160156	-1019.234741210938	912.270751953125	-443.2216491699219	-1094.845092773438	896.7068481445312	-486.7779846191406	-1093.144165039062	1048.429809570312	-506.3099975585938	-990.540283203125	730.6580810546875	-420.5039978027344	-1060.342895507812	807.6849975585938	-484.187255859375	-994.6981811523438	820.306640625	-455.754150390625	-1090.060302734375	1521.862915039062	-48.6954345703125	-1112.752807617188	1450.421264648438	22.29797554016113	-1170.3349609375	1186.510498046875	44.94013214111328	-1169.094360351562	1157.057006835938	-51.39983749389648	-1057.59619140625	918.89404296875	26.66110038757324	-1128.4697265625	910.1618041992188	86.75505828857422	-1163.48193359375	1110.57421875	62.20208740234375	-1058.643188476562	735.76806640625	7.928932666778564	-1033.290405273438	807.5619506835938	46.04534149169922	-1094.032104492188	807.417724609375	90.69496917724609	-1086.275390625	1723.62646484375	-282.28466796875	-902.7318115234375	1712.830688476562	-164.2386169433594	-904.96484375	1712.14990234375	-262.6725769042969	-1076.05859375	1719.435180664062	-137.9987945556641	-1117.2939453125	966.0881958007812	-405.5322570800781	-1090.5283203125	954.2387084960938	-29.15302848815918	-988.0218505859375	983.0986938476562	-105.4058227539062	-1002.532165527344	1006.363708496094	-340.4861755371094	-992.6246948242188	524.181396484375	-379.870849609375	-1042.097900390625	660.4464111328125	-406.0098571777344	-1210.315795898438	64.07197570800781	-381.8316345214844	-1126.2236328125	300.4839477539062	-398.6078186035156	-993.684814453125	44.85770797729492	-322.0781860351562	-1051.110717773438	56.83994674682617	-303.6102600097656	-1087.343505859375	49.00968551635742	-403.0924987792969	-1277.574829101562	80.31612396240234	-328.1064758300781	-1102.862670898438	518.9346923828125	-95.23756408691406	-1070.793334960938	785.5451049804688	-39.32366561889648	-1240.279296875	44.52080154418945	-140.0072631835938	-1134.549560546875	396.8359375	-99.55298614501953	-1009.404235839844	45.17945861816406	-183.83056640625	-1071.727905273438	49.88238906860352	-213.8375701904297	-1091.231201171875	46.0723762512207	-118.4736404418945	-1296.698974609375	44.24983215332031	-184.6732482910156	
